<svg data-name="QTI Btn" xmlns="http://www.w3.org/2000/svg" viewBox="0 0 490 106.19"><rect width="490" height="106.19" rx="10.61" ry="10.61" fill="#ccc"/><path d="M106 36.07h-1.92v-.87a13.27 13.27 0 00-13.21-13.28A13.12 13.12 0 0084 23.81a28.38 28.38 0 00-47.6 13.1 24.18 24.18 0 00-12.92 21.4c0 13.36 10.33 24.19 23.69 24.19 5.36 0 10.81-1.76 13.81-4.71V59.07h-9.1l19.75-31 19.75 31H82v22.11c2-1.22 5-4.11 7.08-5.11H106c27 0 23-40 0-40z" fill="#fff"/><path d="M147.1 36.85h2.73v32h-2.73zm8.66 0h3.51l6.45 27.85h.09l6.41-27.85h3.59v32h-2.55V41.4h-.09c-.26 2-1.39 6.41-2.25 10l-4 17.5h-2.47l-4.11-17.89c-.87-3.29-1.86-7.8-2.12-9.57h-.08V68.9h-2.34zm25.76 0h5.76c5.8 0 9.14 2.38 9.14 8.92 0 7.23-3.68 9.27-9.36 9.27h-2.81V68.9h-2.73zm5.85 15.76c4.5 0 6.28-2 6.28-6.76 0-4.59-1.73-6.5-6.32-6.5h-3.08v13.27zm12 .27c0-11.22 3.46-16.37 9.05-16.37s9.05 5.15 9.05 16.37-3.55 16.37-9.05 16.37-9.05-5.18-9.05-16.37zm15.33 0c0-8.88-2.12-13.82-6.28-13.82s-6.28 4.94-6.28 13.82 2.08 13.86 6.28 13.86 6.28-4.98 6.28-13.86zm22.61 16.02h-2.82l-5.24-14a11.76 11.76 0 01-1.26 0h-3.16v14h-2.73v-32h5.63c6.28 0 9.27 2.73 9.27 8.88 0 3.77-1.3 7.23-5.11 8.57zM228 52.53c4.68 0 6.28-1.95 6.28-6.71 0-4.55-1.56-6.45-6.5-6.45h-2.9v13.16zm18.05-13.16h-6.54v-2.52h15.81v2.52h-6.45V68.9h-2.82zm24.52 29.36c-4.59-1.21-7.45-6-7.45-15.85 0-11.69 4.16-16.41 10.31-16.41s10.31 4.72 10.31 16.41c0 10.35-3.21 14.9-7.8 15.94.26 2.86 1.39 3.55 4.33 3.55h1.34v5.11h-2.86c-6.67 0-8.18-3.94-8.18-8.75zm7-15.85c0-7.45-1.17-11-4.16-11s-4.16 3.55-4.16 11 1.19 11.19 4.18 11.19 4.15-3.74 4.15-11.19zm12.49-10.81h-5.72v-5.2h17.58v5.2h-5.76V68.9h-6.11zm14.59-5.22h6.06v32h-6.06zm17.35 0h7.54c5.33 0 10.13 2.12 10.13 10.39 0 9-5.16 10.7-10.27 10.7h-1.43v11h-6zm7.75 16.11c2.82 0 3.94-1.43 3.94-5.59s-1.13-5.33-4-5.33h-1.73v10.93zm13.88 15.94h-5.28l7.1-32.18h6.06l7.1 32.18h-6l-1.38-7.19H345zm6.28-14.29c-.61-3.42-1.13-5.72-1.69-10.39H348c-.52 4.72-1 6.89-1.65 10.26l-.56 3h4.63zm8.96-1.73c0-11.74 3.81-16.41 10-16.41s8.66 4 9.14 11.74l-5.76.52c-.39-5.07-1.26-6.84-3.38-6.84-2.9 0-3.9 3.42-3.9 11s1.13 11.18 4.03 11.18c2.21 0 3.16-1.65 3.64-7.1l5.76.56c-.78 6.54-3 11.74-9.44 11.74s-10.09-4.61-10.09-16.39zm22.26-16.03h5.93v14.6a71.7 71.7 0 012.82-7l3.64-7.58h5.89L393 49.54l7.15 19.36H394l-5-13.83-1.91 3.94v9.92h-5.93zm25.25 32.05h-5.28l7.1-32.18h6.06l7.1 32.18h-6L414 61.71h-6.24zm6.28-14.29c-.61-3.42-1.13-5.72-1.69-10.39h-.17c-.52 4.72-1 6.89-1.64 10.26l-.56 3h4.63zm8.96-1.78c0-11.26 3.51-16.37 10-16.37 5.46 0 8 3.51 9 11.78l-5.5.65c-.48-5.33-1.43-7-3.51-7-2.6 0-3.9 2.68-3.9 10.91s1.52 11.3 4.16 11.3c2.42 0 3.72-1.86 3.94-6.32h-3.68v-4.71H441V68.9h-4l-.09-3.94a6.11 6.11 0 01-6 4.25c-6.6 0-9.29-5.25-9.29-16.38zm23.09-15.98h14.9v5.22h-8.83v7.58h6.32v4.89h-6.32v9.31H460v5.07h-15.29z" fill="#020202"/></svg>