<svg xmlns="http://www.w3.org/2000/svg" viewBox="0 0 489.48 489.48"><path d="M244.78 489.48a244.09 244.09 0 01-173.14-71.6c-95.47-95.47-95.47-250.81 0-346.28s250.81-95.47 346.28 0 95.47 250.81 0 346.28a244.09 244.09 0 01-173.14 71.6zm0-479.63A234.29 234.29 0 0078.56 78.57c-91.63 91.63-91.63 240.71 0 332.34s240.71 91.63 332.34 0 91.63-240.71 0-332.34A234.29 234.29 0 00244.78 9.85z" fill="#969696"/><path d="M162.43 376s4.63 21.09 28.45 21.09h107.71c23.82 0 28.45-21.09 28.45-21.09l21.27-206.8H141.16zm123.73-175.72a10.36 10.36 0 1120.72 0l-10.36 155.36a10.36 10.36 0 01-20.72 0zm-51.79 0a10.36 10.36 0 1120.71 0v155.36a10.36 10.36 0 11-20.71 0zm-41.43-10.36a10.35 10.35 0 0110.35 10.36l10.36 155.36a10.36 10.36 0 01-20.71 0l-10.35-155.36a10.36 10.36 0 0110.36-10.36zm149.14-62.13h-45.56v-20.72c0-15.72-5.09-20.72-20.72-20.72h-62.14c-14.34 0-20.71 6.95-20.71 20.72v20.73h-45.57c-9.16 0-16.57 7-16.57 15.55s7.41 15.54 16.57 15.54h194.71c9.16 0 16.57-7 16.57-15.54s-7.41-15.55-16.57-15.55zm-66.29 0h-62.13v-20.72h62.12zm0 0" fill-rule="evenodd" fill="#565656"/></svg>