<svg id="QTI_Btn" data-name="QTI Btn" xmlns="http://www.w3.org/2000/svg" viewBox="0 0 490 106.19"><defs><style>.cls-1{fill:#ccc;}.cls-2{fill:#fff;}</style></defs><title>Import QTI</title><g id="Layer_5" data-name="Layer 5"><rect class="cls-1" width="490" height="106.19" rx="10.61" ry="10.61"/><path class="cls-2" d="M1150,199h-1.92s0-.63,0-.87a13.27,13.27,0,0,0-13.21-13.28,13.12,13.12,0,0,0-6.87,1.89,28.38,28.38,0,0,0-47.6,13.1,24.18,24.18,0,0,0-12.92,21.4c0,13.36,10.33,24.19,23.69,24.19,5.36,0,10.81-1.76,13.81-4.71V222h-9.1l19.75-31,19.75,31H1126v22.11c2-1.22,5-4.11,7.08-5.11H1150C1177,239,1173,199,1150,199Z" transform="translate(-1044 -162.93)"/></g></svg>