<svg id="QTI_Btn" data-name="QTI Btn" xmlns="http://www.w3.org/2000/svg" viewBox="0 0 490 106.19"><defs><style>.cls-1{fill:#ccc;}.cls-2{fill:#fff;}.cls-3{fill:#020202;}</style></defs><title>Import QTI</title><rect class="cls-1" width="490" height="106.19" rx="10.61" ry="10.61"/><path class="cls-2" d="M1150,43h-1.92s0-.63,0-.87a13.27,13.27,0,0,0-13.21-13.28,13.12,13.12,0,0,0-6.87,1.89,28.38,28.38,0,0,0-47.6,13.1,24.18,24.18,0,0,0-12.92,21.4c0,13.36,10.33,24.19,23.69,24.19,5.36,0,10.81-1.76,13.81-4.71V66h-9.1l19.75-31,19.75,31H1126V88.11c2-1.22,5-4.11,7.08-5.11H1150C1177,83,1173,43,1150,43Z" transform="translate(-1044 -6.93)"/><path class="cls-3" d="M1191.1,43.78h2.73v32h-2.73Z" transform="translate(-1044 -6.93)"/><path class="cls-3" d="M1199.76,43.78h3.51l6.45,27.85h.09l6.41-27.85h3.59v32h-2.55V48.33h-.09c-.26,2-1.39,6.41-2.25,10l-4,17.5h-2.47l-4.11-17.89c-.87-3.29-1.86-7.8-2.12-9.57h-.08V75.83h-2.34Z" transform="translate(-1044 -6.93)"/><path class="cls-3" d="M1225.52,43.78h5.76c5.8,0,9.14,2.38,9.14,8.92,0,7.23-3.68,9.27-9.36,9.27h-2.81V75.83h-2.73Zm5.85,15.76c4.5,0,6.28-2,6.28-6.76,0-4.59-1.73-6.5-6.32-6.5h-3.08V59.55Z" transform="translate(-1044 -6.93)"/><path class="cls-3" d="M1243.37,59.81c0-11.22,3.46-16.37,9.05-16.37s9.05,5.15,9.05,16.37-3.55,16.37-9.05,16.37S1243.37,71,1243.37,59.81Zm15.33,0c0-8.88-2.12-13.82-6.28-13.82s-6.28,4.94-6.28,13.82,2.08,13.86,6.28,13.86S1258.7,68.69,1258.7,59.81Z" transform="translate(-1044 -6.93)"/><path class="cls-3" d="M1281.31,75.83h-2.82l-5.24-14a11.76,11.76,0,0,1-1.26,0h-3.16v14h-2.73v-32h5.63c6.28,0,9.27,2.73,9.27,8.88,0,3.77-1.3,7.23-5.11,8.57ZM1272,59.46c4.68,0,6.28-1.95,6.28-6.71,0-4.55-1.56-6.45-6.5-6.45h-2.9V59.46Z" transform="translate(-1044 -6.93)"/><path class="cls-3" d="M1290.05,46.3h-6.54V43.78h15.81V46.3h-6.45V75.83h-2.82Z" transform="translate(-1044 -6.93)"/><path class="cls-3" d="M1314.57,75.66c-4.59-1.21-7.45-6-7.45-15.85,0-11.69,4.16-16.41,10.31-16.41s10.31,4.72,10.31,16.41c0,10.35-3.21,14.9-7.8,15.94.26,2.86,1.39,3.55,4.33,3.55h1.34v5.11h-2.86C1316.08,84.41,1314.57,80.47,1314.57,75.66Zm7-15.85c0-7.45-1.17-11-4.16-11s-4.16,3.55-4.16,11S1314.44,71,1317.43,71,1321.58,67.26,1321.58,59.81Z" transform="translate(-1044 -6.93)"/><path class="cls-3" d="M1334.06,49h-5.72v-5.2h17.58V49h-5.76V75.83h-6.11Z" transform="translate(-1044 -6.93)"/><path class="cls-3" d="M1348.65,43.78h6.06v32h-6.06Z" transform="translate(-1044 -6.93)"/><path class="cls-3" d="M1366,43.78h7.54c5.33,0,10.13,2.12,10.13,10.39,0,9-5.16,10.7-10.27,10.7h-1.43v11h-6Zm7.75,16.11c2.82,0,3.94-1.43,3.94-5.59s-1.13-5.33-4-5.33h-1.73V59.9Z" transform="translate(-1044 -6.93)"/><path class="cls-3" d="M1387.63,75.83h-5.28l7.1-32.18h6.06l7.1,32.18h-6l-1.38-7.19H1389Zm6.28-14.29c-.61-3.42-1.13-5.72-1.69-10.39H1392c-.52,4.72-1,6.89-1.65,10.26l-.56,3h4.63Z" transform="translate(-1044 -6.93)"/><path class="cls-3" d="M1402.87,59.81c0-11.74,3.81-16.41,10-16.41s8.66,4,9.14,11.74l-5.76.52c-.39-5.07-1.26-6.84-3.38-6.84-2.9,0-3.9,3.42-3.9,11S1410.1,71,1413,71c2.21,0,3.16-1.65,3.64-7.1l5.76.56c-.78,6.54-3,11.74-9.44,11.74S1402.87,71.59,1402.87,59.81Z" transform="translate(-1044 -6.93)"/><path class="cls-3" d="M1425.13,43.78h5.93V58.38a71.7,71.7,0,0,1,2.82-7l3.64-7.58h5.89L1437,56.47l7.15,19.36H1438L1433,62l-1.91,3.94v9.92h-5.93Z" transform="translate(-1044 -6.93)"/><path class="cls-3" d="M1450.38,75.83h-5.28l7.1-32.18h6.06l7.1,32.18h-6L1458,68.64h-6.24Zm6.28-14.29c-.61-3.42-1.13-5.72-1.69-10.39h-.17c-.52,4.72-1,6.89-1.64,10.26l-.56,3h4.63Z" transform="translate(-1044 -6.93)"/><path class="cls-3" d="M1465.62,59.76c0-11.26,3.51-16.37,10-16.37,5.46,0,8,3.51,9,11.78l-5.5.65c-.48-5.33-1.43-7-3.51-7-2.6,0-3.9,2.68-3.9,10.91s1.52,11.3,4.16,11.3c2.42,0,3.72-1.86,3.94-6.32h-3.68V60H1485V75.83h-4l-.09-3.94h0a6.11,6.11,0,0,1-6,4.25C1468.31,76.14,1465.62,70.89,1465.62,59.76Z" transform="translate(-1044 -6.93)"/><path class="cls-3" d="M1488.71,43.78h14.9V49h-8.83v7.58h6.32v4.89h-6.32v9.31H1504v5.07h-15.29Z" transform="translate(-1044 -6.93)"/></svg>