<svg id="Eye" xmlns="http://www.w3.org/2000/svg" viewBox="0 0 489.48 489.48"><defs><style>.qc-eye-icon-fill-1{fill:#969696;}.qc-eye-icon-fill-2{fill:#565656;}</style></defs><title>View</title><path class="qc-eye-icon-fill-1" d="M453.52,755.21c-3.79-4-91.39-95.85-188.27-101.18-.66,0-1.34,0-2-.06-2.23-.09-4.45-.19-6.69-.19a142.64,142.64,0,0,0-21.6,1.77c-84.72,13-171.12,95.54-175.06,99.35l-7,6.75,6.75,7c2.55,2.64,42.24,43.28,96.11,72.28a286.88,286.88,0,0,0,36,16.4C212.49,865,234.44,870,256.54,870c20.89,0,41.28-4,60.55-10.51,75.37-25.28,133.47-87.71,136.5-91l6.14-6.68ZM256.57,827.82a69.91,69.91,0,0,1-8.88-139.25,69.91,69.91,0,1,1,8.88,139.25Z" transform="translate(-6.22 -525)"/><path class="qc-eye-icon-fill-2" d="M276.23,690.81a69.92,69.92,0,1,0,50.26,67.1A69.95,69.95,0,0,0,276.23,690.81Zm-.71,64.45a22.66,22.66,0,1,1,22.66-22.66A22.67,22.67,0,0,1,275.51,755.26Z" transform="translate(-6.22 -525)"/><path class="qc-eye-icon-fill-1" d="M251,1014.48a244.09,244.09,0,0,1-173.14-71.6c-95.47-95.47-95.47-250.81,0-346.28s250.81-95.47,346.28,0,95.47,250.81,0,346.28A244.09,244.09,0,0,1,251,1014.48Zm0-479.63A234.29,234.29,0,0,0,84.78,603.57c-91.63,91.63-91.63,240.71,0,332.34s240.71,91.63,332.34,0,91.63-240.71,0-332.34A234.29,234.29,0,0,0,251,534.85Z" transform="translate(-6.22 -525)"/></svg>