<svg id="Trash" xmlns="http://www.w3.org/2000/svg" viewBox="0 0 489.48 489.48"><defs><style>.qc-trash-icon-fill-1{fill:#969696}.qc-trash-icon-fill-2{fill:#565656;}.qc-trash-icon-fill-2{fill-rule:evenodd;}</style></defs><title>Delete</title><path class="qc-trash-icon-fill-1" d="M251,495.48a244.09,244.09,0,0,1-173.14-71.6c-95.47-95.47-95.47-250.81,0-346.28s250.81-95.47,346.28,0,95.47,250.81,0,346.28A244.09,244.09,0,0,1,251,495.48Zm0-479.63A234.29,234.29,0,0,0,84.78,84.57c-91.63,91.63-91.63,240.71,0,332.34s240.71,91.63,332.34,0,91.63-240.71,0-332.34A234.29,234.29,0,0,0,251,15.85Z" transform="translate(-6.22 -6)"/><path class="qc-trash-icon-fill-2" d="M168.65,382s4.63,21.09,28.45,21.09H304.81c23.82,0,28.45-21.09,28.45-21.09L354.53,175.2H147.38ZM292.38,206.28a10.36,10.36,0,1,1,20.72,0L302.74,361.64a10.36,10.36,0,0,1-20.72,0Zm-51.79,0a10.36,10.36,0,1,1,20.71,0V361.64a10.36,10.36,0,1,1-20.71,0Zm-41.43-10.36a10.35,10.35,0,0,1,10.35,10.36l10.36,155.36a10.36,10.36,0,0,1-20.71,0L188.81,206.28a10.36,10.36,0,0,1,10.36-10.36Zm149.14-62.13H302.74V113.07c0-15.72-5.09-20.72-20.72-20.72H219.88c-14.34,0-20.71,6.95-20.71,20.72v20.73H153.6c-9.16,0-16.57,7-16.57,15.55s7.41,15.54,16.57,15.54H348.31c9.16,0,16.57-7,16.57-15.54s-7.41-15.55-16.57-15.55Zm-66.29,0H219.88V113.07H282Zm0,0" transform="translate(-6.22 -6)"/></svg>