<svg id="Pencil" xmlns="http://www.w3.org/2000/svg" viewBox="0 0 489.48 489.48"><defs><style>.qc-pencil-icon-fill-1{fill:#969696;}</style></defs><title>Edit</title><path class="qc-pencil-icon-fill-1" d="M821.38,145.34l63.12,63.12L724.73,368.22l-63.08-63.12Zm111-15.22L904.24,102a27.93,27.93,0,0,0-39.46,0l-27,27L900.94,192l31.45-31.45a21.52,21.52,0,0,0,0-30.48ZM628.62,393.82a7.18,7.18,0,0,0,8.69,8.54l70.33-17.05L644.56,322.2Zm0,0" transform="translate(-526.26 -5.85)"/><path class="qc-pencil-icon-fill-1" d="M771,495.33a244.09,244.09,0,0,1-173.14-71.6c-95.47-95.47-95.47-250.81,0-346.28s250.81-95.47,346.28,0,95.47,250.81,0,346.28A244.09,244.09,0,0,1,771,495.33ZM771,15.7A234.29,234.29,0,0,0,604.83,84.42c-91.63,91.63-91.63,240.71,0,332.34s240.71,91.63,332.34,0,91.63-240.71,0-332.34A234.29,234.29,0,0,0,771,15.7Z" transform="translate(-526.26 -5.85)"/></svg>