<?xml version="1.0" encoding="utf-8"?>
<!-- Generator: Adobe Illustrator 21.1.0, SVG Export Plug-In . SVG Version: 6.00 Build 0)  -->
<svg version="1.1" xmlns="http://www.w3.org/2000/svg" xmlns:xlink="http://www.w3.org/1999/xlink" x="0px" y="0px"
	 viewBox="0 0 500 500" style="enable-background:new 0 0 500 500;" xml:space="preserve">
<style type="text/css">
	.qc-copy-icon-fill-1{fill:#969696;}
	.qc-copy-icon-fill-2{fill:#565656;}
</style>
<title>Copy</title>
<g id="qc-circle-icon">
	<g>
		<path class="qc-copy-icon-fill-1" d="M253,494.3c-62.7,0-125.4-23.9-173.1-71.6c-95.5-95.5-95.5-250.8,0-346.3c95.5-95.5,250.8-95.5,346.3,0
			s95.5,250.8,0,346.3C378.4,470.5,315.7,494.3,253,494.3z M253,14.7c-60.2,0-120.4,22.9-166.2,68.7c-91.6,91.6-91.6,240.7,0,332.3
			c91.6,91.6,240.7,91.6,332.3,0c91.6-91.6,91.6-240.7,0-332.3C373.4,37.6,313.2,14.7,253,14.7z"/>
	</g>
</g>
<g id="qc-copy-icon">
	<g>
		<path class="qc-copy-icon-fill-2" d="M331.9,371.5c0,8.8,0,16.8,0,24.9c-0.1,11.4-3,14.5-14.4,14.3c-67.4-1.3-134.9-2.7-202.3-4
			c-1.9,0-3.7-0.1-5.6-0.1c-16.4-0.1-17.6-1.2-17.6-17.3c0-85.9,0-171.8,0-257.7c0-13.8,2.4-16.3,16.2-16.7
			c26.8-0.8,53.6-1.5,81.3-2.2c0-6.6,0-12.5,0-18.3c0-14.3,2.2-16.6,16.9-17c19.4-0.6,38.7-1,58.1-1.6c27.5-0.8,54.9-1.5,82.4-2.6
			c10.4-0.4,18.7,2.8,26,10.3c15.5,15.8,31.4,31.4,47.3,46.7c6.5,6.3,9.5,13.5,9.5,22.5c-0.1,69-0.1,138-0.1,207.1
			c0,10.2-3.3,13.6-13.4,13.4c-24.4-0.4-48.7-1.1-73.1-1.6C339.5,371.5,336.2,371.5,331.9,371.5z M111.2,133.7
			c0,84.9,0,169.1,0,253.9c67.4,1.4,134.4,2.7,201.4,4.1c0-65.3,0-129.5,0-194.4c-4,0-7.3-0.1-10.7,0c-14,0.4-28.1,1.2-42.1,1.4
			c-12.1,0.2-18.5-5.9-19.5-18c-0.4-4.7-0.2-9.4-0.2-14c0-12.1,0-24.1,0-36.7C196.2,131.3,153.9,132.5,111.2,133.7z M208.5,110.8
			c14.4,0,28.1,0.3,41.7-0.1c9.7-0.3,17.5,2.8,24.3,9.7c15.1,15.3,30.4,30.6,46.1,45.3c8.1,7.7,11.5,16.3,11.4,27.4
			c-0.3,49.7-0.2,99.3-0.2,149c0,3.3,0,6.6,0,11.1c26.9,0,52.6,0,78.1,0c0-64.4,0-128.5,0-191.8c-17.8,0-34.9,0-52,0
			c-13.1,0-19.6-6-20.3-19.2c-0.4-7.8-0.1-15.6-0.2-23.4c0-8.6,0-17.2,0-26.2c-43.8,1.2-86.2,2.4-128.9,3.7
			C208.5,101.7,208.5,106.3,208.5,110.8z M399.6,141.4c-13.8-14.9-27.8-30.1-42.8-46.2c0,16.5,0,31.4,0,46.2
			C372.1,141.4,386.7,141.4,399.6,141.4z M301.9,178.9c-13.7-14.8-27.8-30-42.6-46c0,16.2,0,31.2,0,46
			C274.6,178.9,289.2,178.9,301.9,178.9z"/>
	</g>
</g>
</svg>
