<svg xmlns="http://www.w3.org/2000/svg" viewBox="0 0 500 500"><path d="M253 494.3c-62.7 0-125.4-23.9-173.1-71.6-95.5-95.5-95.5-250.8 0-346.3s250.8-95.5 346.3 0 95.5 250.8 0 346.3c-47.8 47.8-110.5 71.6-173.2 71.6zm0-479.6c-60.2 0-120.4 22.9-166.2 68.7-91.6 91.6-91.6 240.7 0 332.3 91.6 91.6 240.7 91.6 332.3 0 91.6-91.6 91.6-240.7 0-332.3C373.4 37.6 313.2 14.7 253 14.7z" fill="#969696"/><path d="M331.9 371.5v24.9c-.1 11.4-3 14.5-14.4 14.3-67.4-1.3-134.9-2.7-202.3-4-1.9 0-3.7-.1-5.6-.1-16.4-.1-17.6-1.2-17.6-17.3V131.6c0-13.8 2.4-16.3 16.2-16.7 26.8-.8 53.6-1.5 81.3-2.2V94.4c0-14.3 2.2-16.6 16.9-17 19.4-.6 38.7-1 58.1-1.6 27.5-.8 54.9-1.5 82.4-2.6 10.4-.4 18.7 2.8 26 10.3 15.5 15.8 31.4 31.4 47.3 46.7 6.5 6.3 9.5 13.5 9.5 22.5-.1 69-.1 138-.1 207.1 0 10.2-3.3 13.6-13.4 13.4-24.4-.4-48.7-1.1-73.1-1.6-3.6-.1-6.9-.1-11.2-.1zM111.2 133.7v253.9c67.4 1.4 134.4 2.7 201.4 4.1V197.3c-4 0-7.3-.1-10.7 0-14 .4-28.1 1.2-42.1 1.4-12.1.2-18.5-5.9-19.5-18-.4-4.7-.2-9.4-.2-14V130c-43.9 1.3-86.2 2.5-128.9 3.7zm97.3-22.9c14.4 0 28.1.3 41.7-.1 9.7-.3 17.5 2.8 24.3 9.7 15.1 15.3 30.4 30.6 46.1 45.3 8.1 7.7 11.5 16.3 11.4 27.4-.3 49.7-.2 99.3-.2 149v11.1h78.1V161.4h-52c-13.1 0-19.6-6-20.3-19.2-.4-7.8-.1-15.6-.2-23.4V92.6c-43.8 1.2-86.2 2.4-128.9 3.7v14.5zm191.1 30.6c-13.8-14.9-27.8-30.1-42.8-46.2v46.2h42.8zm-97.7 37.5c-13.7-14.8-27.8-30-42.6-46v46h42.6z" fill="#565656"/></svg>